<svg viewBox="0 0 24 24" xmlns="http://www.w3.org/2000/svg" aria-hidden="true">
  <path fill="#4285F4" d="M23.04 12.27c0-.79-.07-1.54-.2-2.27H12v4.3h6.18a5.28 5.28 0 0 1-2.29 3.46v2.88h3.7c2.16-1.99 3.45-4.93 3.45-8.37Z" />
  <path fill="#34A853" d="M12 24c2.7 0 4.96-.89 6.62-2.41l-3.7-2.88c-.96.65-2.21 1.04-2.92 1.04-2.83 0-5.22-1.92-6.07-4.5H1.83v2.96A11.99 11.99 0 0 0 12 24Z" />
  <path fill="#FBBC05" d="M5.93 14.25a7.18 7.18 0 0 1-.39-2.25c0-.78.14-1.54.39-2.25V6.79H1.83A11.99 11.99 0 0 0 0 12c0 1.93.46 3.76 1.83 5.21l4.1-2.96Z" />
  <path fill="#EA4335" d="M12 4.75c1.47 0 2.79.51 3.83 1.5l3.28-3.28C16.95.93 14.7 0 12 0A11.99 11.99 0 0 0 1.83 6.79l4.1 2.96c.85-2.58 3.24-4.5 6.07-4.5Z" />
</svg>
